<?xml version="1.0" encoding="UTF-8"?>
<svg xmlns="http://www.w3.org/2000/svg" xmlns:xlink="http://www.w3.org/1999/xlink" width="36px" height="36px" viewBox="0 0 36 36" version="1.1">
<g id="surface1">
<path style="fill:none;stroke-width:1.5;stroke-linecap:round;stroke-linejoin:miter;stroke:#000000;stroke-opacity:1;stroke-miterlimit:4;" d="M 17 3.338542 C 15.528646 2.486979 13.820312 2 12 2 C 6.476562 2 2 6.476562 2 12 C 2 13.598958 2.375 15.111979 3.044271 16.453125 C 3.221354 16.809896 3.28125 17.216146 3.177083 17.601562 L 2.580729 19.825521 C 2.322917 20.794271 3.205729 21.677083 4.174479 21.419271 L 6.398438 20.822917 C 6.783854 20.71875 7.190104 20.778646 7.546875 20.955729 C 8.888021 21.625 10.401042 22 12 22 C 17.523438 22 22 17.523438 22 12 C 22 10.179688 21.513021 8.471354 20.661458 7 " transform="matrix(1.5,0,0,1.5,0,0)"/>
<path style="fill:none;stroke-width:2;stroke-linecap:round;stroke-linejoin:round;stroke:#000000;stroke-opacity:1;stroke-miterlimit:4;" d="M 8 12 L 8.007812 12 M 11.992188 12 L 12 12 M 15.992188 12 L 16 12 " transform="matrix(1.5,0,0,1.5,0,0)"/>
</g>
</svg>
