<?xml version="1.0" encoding="UTF-8"?>
<svg xmlns="http://www.w3.org/2000/svg" xmlns:xlink="http://www.w3.org/1999/xlink" width="32px" height="32px" viewBox="0 0 32 32" version="1.1">
<g id="surface1">
<path style=" stroke:none;fill-rule:nonzero;fill:rgb(0%,0%,0%);fill-opacity:1;" d="M 30.140625 26.433594 L 20.15625 12.972656 L 20.15625 5.53125 L 20.191406 5.53125 C 20.261719 5.53125 20.296875 5.53125 20.363281 5.496094 C 21.269531 5.21875 21.894531 4.417969 21.894531 3.476562 L 21.894531 2.085938 C 21.894531 0.9375 20.957031 0 19.808594 0 L 12.15625 0 C 11.007812 0 10.070312 0.9375 10.070312 2.085938 L 10.070312 3.476562 C 10.070312 4.523438 10.835938 5.355469 11.808594 5.53125 L 11.808594 12.972656 L 1.859375 26.433594 C 1.0625 27.511719 0.957031 28.90625 1.546875 30.085938 C 2.140625 31.269531 3.320312 32 4.644531 32 L 27.355469 32 C 28.679688 32 29.859375 31.269531 30.453125 30.085938 C 31.042969 28.90625 30.9375 27.511719 30.140625 26.433594 Z M 13.0625 13.636719 C 13.164062 13.53125 13.199219 13.355469 13.199219 13.21875 L 13.199219 5.566406 L 14.070312 5.566406 C 14.453125 5.566406 14.765625 5.253906 14.765625 4.871094 C 14.765625 4.488281 14.453125 4.175781 14.070312 4.175781 L 12.15625 4.175781 C 11.773438 4.175781 11.460938 3.859375 11.460938 3.476562 L 11.460938 2.085938 C 11.460938 1.703125 11.773438 1.390625 12.15625 1.390625 L 19.808594 1.390625 C 20.191406 1.390625 20.503906 1.703125 20.503906 2.085938 L 20.503906 3.476562 C 20.503906 3.824219 20.261719 4.070312 20.015625 4.140625 L 19.425781 4.175781 C 19.042969 4.207031 18.765625 4.488281 18.765625 4.871094 L 18.765625 13.21875 C 18.765625 13.355469 18.800781 13.496094 18.90625 13.636719 L 24.121094 20.660156 C 23.460938 20.554688 22.765625 20.417969 22.105469 20.207031 L 18.207031 19.027344 C 15.285156 18.15625 11.84375 18.191406 8.992188 19.164062 L 8.957031 19.164062 Z M 29.199219 29.460938 C 28.851562 30.191406 28.15625 30.609375 27.355469 30.609375 L 4.644531 30.609375 C 3.84375 30.609375 3.148438 30.191406 2.800781 29.460938 C 2.417969 28.730469 2.488281 27.894531 2.972656 27.269531 L 7.460938 21.183594 L 9.410156 20.523438 C 12.015625 19.652344 15.148438 19.582031 17.792969 20.382812 L 21.6875 21.566406 C 22.871094 21.914062 24.085938 22.121094 25.234375 22.15625 L 29.027344 27.234375 C 29.511719 27.929688 29.582031 28.730469 29.199219 29.460938 Z M 29.199219 29.460938 "/>
<path style=" stroke:none;fill-rule:nonzero;fill:rgb(0%,0%,0%);fill-opacity:1;" d="M 16.503906 5.566406 L 17.546875 5.566406 C 17.929688 5.566406 18.242188 5.253906 18.242188 4.871094 C 18.242188 4.488281 17.929688 4.175781 17.546875 4.175781 L 16.503906 4.175781 C 16.121094 4.175781 15.808594 4.488281 15.808594 4.871094 C 15.808594 5.253906 16.121094 5.566406 16.503906 5.566406 Z M 16.503906 5.566406 "/>
</g>
</svg>
