<?xml version="1.0" encoding="UTF-8"?>
<svg xmlns="http://www.w3.org/2000/svg" xmlns:xlink="http://www.w3.org/1999/xlink" width="px" height="32px" viewBox="0 0 32 32" version="1.1">
<g id="surface1">
<path style=" stroke:none;fill-rule:evenodd;fill:rgb(5.882353%,5.882353%,5.882353%);fill-opacity:1;" d="M 8 1.332031 C 5.789062 1.332031 4 3.125 4 5.332031 L 4 26.667969 C 4 28.875 5.789062 30.667969 8 30.667969 L 24 30.667969 C 26.210938 30.667969 28 28.875 28 26.667969 L 28 11.769531 C 28 10.710938 27.578125 9.691406 26.828125 8.941406 L 20.390625 2.503906 C 19.640625 1.753906 18.621094 1.332031 17.5625 1.332031 Z M 6.667969 5.332031 C 6.667969 4.597656 7.261719 4 8 4 L 16 4 L 16 10.667969 C 16 12.140625 17.195312 13.332031 18.667969 13.332031 L 25.332031 13.332031 L 25.332031 26.667969 C 25.332031 27.402344 24.738281 28 24 28 L 8 28 C 7.261719 28 6.667969 27.402344 6.667969 26.667969 Z M 24.78125 10.667969 L 18.667969 4.550781 L 18.667969 10.667969 Z M 24.78125 10.667969 "/>
</g>
</svg>
