<?xml version="1.0" encoding="UTF-8"?>
<svg xmlns="http://www.w3.org/2000/svg" xmlns:xlink="http://www.w3.org/1999/xlink" width="px" height="32px" viewBox="0 0 32 32" version="1.1">
<g id="surface1">
<path style=" stroke:none;fill-rule:evenodd;fill:rgb(0%,0%,0%);fill-opacity:1;" d="M 12.390625 1.722656 C 12.640625 1.472656 12.980469 1.332031 13.332031 1.332031 L 24 1.332031 C 26.210938 1.332031 28 3.125 28 5.332031 L 28 26.667969 C 28 28.875 26.210938 30.667969 24 30.667969 L 8 30.667969 C 5.789062 30.667969 4 28.875 4 26.667969 L 4 10.667969 C 4 10.3125 4.140625 9.972656 4.390625 9.722656 Z M 24 4 L 14.667969 4 L 14.667969 10.667969 C 14.667969 11.402344 14.070312 12 13.332031 12 L 6.667969 12 L 6.667969 26.667969 C 6.667969 27.402344 7.261719 28 8 28 L 24 28 C 24.738281 28 25.332031 27.402344 25.332031 26.667969 L 25.332031 5.332031 C 25.332031 4.597656 24.738281 4 24 4 Z M 8.550781 9.332031 L 12 9.332031 L 12 5.886719 Z M 9.332031 17.332031 C 9.332031 16.597656 9.929688 16 10.667969 16 L 21.332031 16 C 22.070312 16 22.667969 16.597656 22.667969 17.332031 C 22.667969 18.070312 22.070312 18.667969 21.332031 18.667969 L 10.667969 18.667969 C 9.929688 18.667969 9.332031 18.070312 9.332031 17.332031 Z M 9.332031 22.667969 C 9.332031 21.929688 9.929688 21.332031 10.667969 21.332031 L 21.332031 21.332031 C 22.070312 21.332031 22.667969 21.929688 22.667969 22.667969 C 22.667969 23.402344 22.070312 24 21.332031 24 L 10.667969 24 C 9.929688 24 9.332031 23.402344 9.332031 22.667969 Z M 9.332031 22.667969 "/>
</g>
</svg>
