<?xml version="1.0" encoding="UTF-8"?>
<svg xmlns="http://www.w3.org/2000/svg" xmlns:xlink="http://www.w3.org/1999/xlink" width="px" height="32px" viewBox="0 0 32 32" version="1.1">
<g id="surface1">
<path style=" stroke:none;fill-rule:nonzero;fill:rgb(17.254902%,66.274512%,73.725492%);fill-opacity:1;" d="M 9.332031 4 C 6.386719 4 4 6.386719 4 9.332031 C 4 12.277344 6.386719 14.667969 9.332031 14.667969 C 12.277344 14.667969 14.667969 12.277344 14.667969 9.332031 C 14.667969 6.386719 12.277344 4 9.332031 4 Z M 22.667969 28 C 25.613281 28 28 25.613281 28 22.667969 C 28 19.722656 25.613281 17.332031 22.667969 17.332031 C 19.722656 17.332031 17.332031 19.722656 17.332031 22.667969 C 17.332031 25.613281 19.722656 28 22.667969 28 Z M 22.667969 28 "/>
<path style="fill:none;stroke-width:2;stroke-linecap:round;stroke-linejoin:round;stroke:rgb(0%,0%,0%);stroke-opacity:1;stroke-miterlimit:4;" d="M 14.569336 4.429687 C 15.732422 4.822266 16.790039 5.475586 17.660156 6.339844 C 18.583008 7.262695 19.268555 8.396484 19.661133 9.638672 " transform="matrix(1.333333,0,0,1.333333,0,0)"/>
<path style="fill:none;stroke-width:2;stroke-linecap:round;stroke-linejoin:round;stroke:rgb(0%,0%,0%);stroke-opacity:1;stroke-miterlimit:4;" d="M 17.850586 8.80957 L 19.661133 9.650391 L 20.499023 7.839844 " transform="matrix(1.333333,0,0,1.333333,0,0)"/>
<path style="fill:none;stroke-width:2;stroke-linecap:round;stroke-linejoin:round;stroke:rgb(0%,0%,0%);stroke-opacity:1;stroke-miterlimit:4;" d="M 4.350586 14.361328 C 4.743164 15.603516 5.428711 16.737305 6.348633 17.660156 C 7.21875 18.524414 8.276367 19.177734 9.439453 19.570312 " transform="matrix(1.333333,0,0,1.333333,0,0)"/>
<path style="fill:none;stroke-width:2;stroke-linecap:round;stroke-linejoin:round;stroke:rgb(0%,0%,0%);stroke-opacity:1;stroke-miterlimit:4;" d="M 6.149414 15.19043 L 4.338867 14.349609 L 3.500977 16.160156 " transform="matrix(1.333333,0,0,1.333333,0,0)"/>
<path style="fill:none;stroke-width:2;stroke-linecap:round;stroke-linejoin:round;stroke:rgb(0%,0%,0%);stroke-opacity:1;stroke-miterlimit:4;" d="M 6.999023 3 C 4.790039 3 3 4.790039 3 6.999023 C 3 9.208008 4.790039 11.000977 6.999023 11.000977 C 9.208008 11.000977 11.000977 9.208008 11.000977 6.999023 C 11.000977 4.790039 9.208008 3 6.999023 3 Z M 17.000977 21 C 19.209961 21 21 19.209961 21 17.000977 C 21 14.791992 19.209961 12.999023 17.000977 12.999023 C 14.791992 12.999023 12.999023 14.791992 12.999023 17.000977 C 12.999023 19.209961 14.791992 21 17.000977 21 Z M 17.000977 21 " transform="matrix(1.333333,0,0,1.333333,0,0)"/>
</g>
</svg>
