<?xml version="1.0" encoding="UTF-8"?>
<svg xmlns="http://www.w3.org/2000/svg" xmlns:xlink="http://www.w3.org/1999/xlink" width="px" height="32px" viewBox="0 0 32 32" version="1.1">
<g id="surface1">
<path style=" stroke:none;fill-rule:nonzero;fill:rgb(0%,0%,0%);fill-opacity:1;" d="M 7.453125 13.914062 L 10.632812 13.914062 L 10.632812 17.09375 L 7.453125 17.09375 Z M 7.453125 13.914062 "/>
<path style=" stroke:none;fill-rule:nonzero;fill:rgb(0%,0%,0%);fill-opacity:1;" d="M 21.367188 13.914062 L 24.546875 13.914062 L 24.546875 17.09375 L 21.367188 17.09375 Z M 21.367188 13.914062 "/>
<path style=" stroke:none;fill-rule:nonzero;fill:rgb(0%,0%,0%);fill-opacity:1;" d="M 16.730469 13.914062 L 19.910156 13.914062 L 19.910156 17.09375 L 16.730469 17.09375 Z M 16.730469 13.914062 "/>
<path style=" stroke:none;fill-rule:nonzero;fill:rgb(0%,0%,0%);fill-opacity:1;" d="M 7.453125 18.882812 L 10.632812 18.882812 L 10.632812 22.0625 L 7.453125 22.0625 Z M 7.453125 18.882812 "/>
<path style=" stroke:none;fill-rule:nonzero;fill:rgb(0%,0%,0%);fill-opacity:1;" d="M 16.730469 18.882812 L 19.910156 18.882812 L 19.910156 22.0625 L 16.730469 22.0625 Z M 16.730469 18.882812 "/>
<path style=" stroke:none;fill-rule:nonzero;fill:rgb(0%,0%,0%);fill-opacity:1;" d="M 12.089844 18.882812 L 15.269531 18.882812 L 15.269531 22.0625 L 12.089844 22.0625 Z M 12.089844 18.882812 "/>
<path style=" stroke:none;fill-rule:nonzero;fill:rgb(0%,0%,0%);fill-opacity:1;" d="M 21.367188 23.851562 L 24.546875 23.851562 L 24.546875 27.03125 L 21.367188 27.03125 Z M 21.367188 23.851562 "/>
<path style=" stroke:none;fill-rule:nonzero;fill:rgb(0%,0%,0%);fill-opacity:1;" d="M 16.730469 23.851562 L 19.910156 23.851562 L 19.910156 27.03125 L 16.730469 27.03125 Z M 16.730469 23.851562 "/>
<path style=" stroke:none;fill-rule:nonzero;fill:rgb(0%,0%,0%);fill-opacity:1;" d="M 12.089844 23.851562 L 15.269531 23.851562 L 15.269531 27.03125 L 12.089844 27.03125 Z M 12.089844 23.851562 "/>
<path style=" stroke:none;fill-rule:nonzero;fill:rgb(0%,0%,0%);fill-opacity:1;" d="M 27.453125 3.441406 L 24.867188 3.441406 L 24.867188 5.917969 C 24.867188 6.84375 24.105469 7.597656 23.167969 7.597656 L 19.792969 7.597656 C 18.855469 7.597656 18.09375 6.84375 18.09375 5.917969 L 18.09375 3.441406 L 13.902344 3.441406 L 13.902344 5.894531 C 13.902344 6.835938 13.128906 7.597656 12.183594 7.597656 L 8.84375 7.597656 C 7.898438 7.597656 7.125 6.835938 7.125 5.894531 L 7.125 3.441406 L 4.539062 3.441406 C 2.859375 3.441406 1.492188 4.796875 1.492188 6.460938 L 1.492188 28.976562 C 1.492188 30.644531 2.859375 32 4.539062 32 L 27.453125 32 C 29.140625 32 30.507812 30.644531 30.507812 28.976562 L 30.507812 6.460938 C 30.507812 4.796875 29.140625 3.441406 27.453125 3.441406 Z M 28.324219 28.917969 C 28.324219 29.453125 27.964844 29.8125 27.429688 29.8125 L 4.570312 29.8125 C 4.035156 29.8125 3.675781 29.453125 3.675781 28.917969 L 3.675781 11.128906 L 28.324219 11.128906 Z M 28.324219 28.917969 "/>
<path style=" stroke:none;fill-rule:nonzero;fill:rgb(0%,0%,0%);fill-opacity:1;" d="M 8.84375 6.40625 L 12.183594 6.40625 C 12.464844 6.40625 12.695312 6.179688 12.695312 5.898438 L 12.695312 1.28125 C 12.695312 0.574219 12.117188 0 11.402344 0 L 9.625 0 C 8.914062 0 8.332031 0.574219 8.332031 1.28125 L 8.332031 5.898438 C 8.332031 6.179688 8.5625 6.40625 8.84375 6.40625 Z M 8.84375 6.40625 "/>
<path style=" stroke:none;fill-rule:nonzero;fill:rgb(0%,0%,0%);fill-opacity:1;" d="M 19.792969 6.40625 L 23.167969 6.40625 C 23.441406 6.40625 23.664062 6.1875 23.664062 5.917969 L 23.664062 1.261719 C 23.664062 0.566406 23.09375 0 22.390625 0 L 20.574219 0 C 19.871094 0 19.300781 0.566406 19.300781 1.261719 L 19.300781 5.917969 C 19.300781 6.1875 19.523438 6.40625 19.792969 6.40625 Z M 19.792969 6.40625 "/>
</g>
</svg>
